<?xml version="1.0" standalone="no"?>
<!DOCTYPE svg PUBLIC "-//W3C//DTD SVG 20010904//EN"
 "http://www.w3.org/TR/2001/REC-SVG-20010904/DTD/svg10.dtd">
<svg version="1.0" xmlns="http://www.w3.org/2000/svg"
 width="512.000000pt" height="512.000000pt" viewBox="0 0 512.000000 512.000000"
 preserveAspectRatio="xMidYMid meet">

<g transform="translate(0.000000,512.000000) scale(0.100000,-0.100000)"
fill="#000000" stroke="none">
<path d="M2330 5106 c-69 -19 -116 -45 -170 -93 -130 -117 -178 -286 -134
-473 19 -84 89 -230 154 -324 128 -185 344 -344 529 -392 60 -15 69 -15 130 0
189 47 412 214 541 405 206 306 212 599 16 778 -167 153 -387 148 -562 -11
l-59 -53 -53 48 c-70 64 -123 94 -197 113 -70 19 -133 19 -195 2z"/>
<path d="M1956 3899 c-109 -26 -219 -117 -273 -227 -26 -52 -28 -67 -28 -167
0 -157 18 -191 214 -402 83 -89 151 -164 151 -166 0 -2 -23 -7 -52 -10 -72 -9
-154 -52 -216 -114 -144 -143 -159 -366 -36 -530 13 -17 24 -34 24 -36 0 -2
-22 -7 -49 -11 -112 -15 -235 -106 -290 -214 -73 -144 -53 -329 48 -444 17
-20 31 -38 31 -40 0 -3 -22 -8 -50 -11 -110 -13 -241 -110 -293 -217 -37 -77
-51 -172 -38 -246 21 -113 55 -162 284 -409 117 -126 244 -259 283 -294 175
-160 410 -278 667 -333 146 -31 408 -31 554 0 550 118 971 524 1098 1056 63
263 52 525 -31 775 -71 213 -171 376 -351 571 l-101 108 139 324 c90 209 143
345 149 383 28 170 -68 348 -230 428 -60 30 -72 32 -170 32 -94 0 -111 -3
-164 -28 -127 -59 -170 -113 -262 -327 -31 -74 -61 -139 -64 -143 -4 -5 -119
112 -255 260 -291 315 -342 366 -398 395 -88 44 -198 59 -291 37z m224 -165
c28 -15 86 -68 141 -128 52 -56 339 -367 639 -691 633 -683 647 -699 705 -786
155 -231 223 -474 212 -764 -12 -329 -133 -610 -362 -841 -225 -226 -506 -354
-835 -379 -297 -23 -649 93 -885 292 -112 94 -503 520 -531 578 -47 99 -27
221 50 298 60 60 90 72 186 72 117 0 141 -16 323 -214 82 -89 159 -168 172
-177 48 -31 115 16 101 72 -4 15 -100 127 -214 251 -390 423 -381 412 -382
512 0 76 17 125 64 178 75 85 183 113 290 77 57 -20 75 -37 390 -377 143 -154
249 -260 264 -264 36 -9 76 26 80 68 2 32 -13 51 -235 290 -605 651 -573 610
-573 729 0 107 49 188 142 234 97 49 217 30 300 -47 25 -23 207 -216 403 -429
330 -359 359 -388 389 -388 74 0 92 76 34 138 -19 20 -176 190 -348 377 -172
187 -393 426 -490 530 -97 105 -220 237 -274 295 -54 58 -107 123 -118 144
-44 85 -32 205 27 282 28 37 99 82 148 95 51 13 136 1 187 -27z m1326 -192
c53 -27 107 -88 129 -145 34 -91 22 -140 -110 -447 -65 -151 -121 -279 -125
-283 -8 -10 -390 398 -390 417 0 21 140 340 167 379 67 97 221 134 329 79z"/>
</g>
</svg>
